PathFileType	4	(X/Y/Z)	 s11c0403.trc
DataRate	CameraRate	NumFrames	NumMarkers	Units	OrigDataRate	OrigDataStartFrame	OrigNumFrames
200	200	4	48	mm	200	1751	2000
Frame#	Time	racr			lacr			c7			jug			rlel			rdr			llel			ldr			s2			lic			ric			lasi			rasi			rpsi			lpsi			rgt			lgt			rth1			rth2			rth3			rth4			rlfc			rmfc			rsh1			rsh2			rsh3			rsh4			rlmal			rcal			rtoe			rmt5			lth1			lth2			lth4			lth3			llfc			lmfc			llmal			lcal			lmt5			lsh1			lsh2			lsh3			lsh4			ltoe			SBIKE			LBIKE			RBIKE			
		X1	Y1	Z1	X2	Y2	Z2	X3	Y3	Z3	X4	Y4	Z4	X5	Y5	Z5	X6	Y6	Z6	X7	Y7	Z7	X8	Y8	Z8	X9	Y9	Z9	X10	Y10	Z10	X11	Y11	Z11	X12	Y12	Z12	X13	Y13	Z13	X14	Y14	Z14	X15	Y15	Z15	X16	Y16	Z16	X17	Y17	Z17	X18	Y18	Z18	X19	Y19	Z19	X20	Y20	Z20	X21	Y21	Z21	X22	Y22	Z22	X23	Y23	Z23	X24	Y24	Z24	X25	Y25	Z25	X26	Y26	Z26	X27	Y27	Z27	X28	Y28	Z28	X29	Y29	Z29	X30	Y30	Z30	X31	Y31	Z31	X32	Y32	Z32	X33	Y33	Z33	X34	Y34	Z34	X35	Y35	Z35	X36	Y36	Z36	X37	Y37	Z37	X38	Y38	Z38	X39	Y39	Z39	X40	Y40	Z40	X41	Y41	Z41	X42	Y42	Z42	X43	Y43	Z43	X44	Y44	Z44	X45	Y45	Z45	X46	Y46	Z46	X47	Y47	Z47	X48	Y48	Z48	
1751	8.7550	814.975154	1333.955849	-84.353759	799.311289	1369.090570	-428.345059	796.005750	1449.230293	-254.641884	751.185093	1275.029218	-267.565938	618.888271	1151.943118	41.031786	779.809760	971.423111	-59.431333	590.559122	1163.182671	-561.281630	783.619526	954.443719	-441.047643	191.889700	1292.605328	-222.333942	385.953711	1314.358804	-437.833926	420.377320	1249.958308	-34.587838	405.409385	1227.805726	-406.239293	444.756334	1188.744122	-75.460339	244.150428	1358.426173	-159.571850	236.213928	1363.799179	-249.915143	316.696062	1109.260911	-23.766883	307.128749	1189.636075	-450.681474	365.364557	981.031964	-22.226564	410.768871	905.956574	-39.547551	412.350070	820.008673	-56.292806	443.858196	917.747884	-50.185696	436.539439	722.966316	-75.231920	436.395947	698.551864	-198.383669	326.071461	599.746442	-59.588674	285.131750	523.357827	-77.639322	212.819959	474.948867	-78.281578	307.192878	508.132143	-107.049892	115.341299	382.529742	-90.454553	68.747810	423.753710	-141.184637	208.169845	172.137113	-139.289640	143.803465	211.599138	-71.295546	426.439655	1093.474106	-459.757973	496.170407	1058.279873	-454.007658	519.991109	1083.515750	-446.780693	554.759276	984.343883	-446.080128	655.584681	887.670727	-420.015193	664.714109	878.809246	-287.610961	386.892227	547.333026	-404.803278	315.279385	545.232034	-372.301651	454.677436	388.779771	-435.031230	581.899072	790.369470	-437.135932	552.031610	710.577074	-427.109733	485.135980	652.620420	-422.726573	579.157364	694.062001	-403.758530	542.276189	351.027518	-366.031039	-169.813030	972.944133	-174.801472	1.332768	83.061784	-460.862061	-15.210200	81.722606	-62.457549	
1752	8.7600	814.864965	1334.350446	-84.764060	799.795148	1368.432522	-427.606380	796.294655	1448.902669	-254.610897	750.720451	1275.292851	-266.960620	619.371194	1151.118925	39.234059	780.524363	971.050492	-60.063714	590.801301	1163.462342	-561.408766	783.642483	954.938679	-441.122981	192.178333	1294.401704	-223.014130	385.936837	1314.342627	-438.960986	420.053041	1253.292127	-34.377672	404.695725	1227.627806	-407.467636	444.490029	1191.331374	-74.046541	244.684391	1360.520565	-161.183495	236.563044	1365.399116	-251.298653	318.257551	1111.393388	-23.885016	305.104708	1188.876087	-450.393077	370.204294	983.202824	-22.298632	416.929394	908.995136	-39.919139	419.905606	823.018379	-56.363191	449.647976	921.298490	-50.836543	444.811655	727.062650	-75.377997	444.363309	701.425790	-198.406658	331.966450	603.894740	-59.534281	289.415535	528.259284	-77.689746	216.130473	481.727456	-78.006249	310.995509	512.957860	-107.301409	116.406688	391.779757	-89.985005	71.212378	434.541942	-140.810352	202.775453	178.616701	-139.292493	139.488510	220.031785	-71.389688	422.640172	1090.686154	-459.828149	498.897822	1054.233957	-450.368880	521.390630	1078.078719	-436.255845	549.282703	979.425942	-446.816940	649.733563	881.139937	-420.176763	658.797080	872.599800	-288.141759	386.199220	536.062258	-404.628053	314.283604	532.222374	-371.993631	458.023941	379.569938	-435.071529	577.350374	781.937975	-437.571019	548.981886	701.084719	-425.843709	482.892810	642.649356	-422.584851	576.080739	685.804259	-403.635602	546.834883	344.416546	-366.329363	-169.667337	973.007918	-174.748224	1.366787	83.018396	-460.892699	-15.203007	81.735222	-62.450583	
1753	8.7650	814.738843	1334.734146	-84.927121	800.231853	1367.817238	-426.853624	796.546201	1448.719326	-254.496199	750.308053	1275.445589	-266.170989	619.668119	1150.661560	37.372821	781.021948	970.924607	-60.474373	591.041846	1163.862730	-561.544783	783.733717	955.334684	-441.503570	192.402832	1296.027337	-223.535629	386.019380	1313.939406	-440.110093	419.730449	1255.936879	-34.397712	404.167967	1227.199798	-408.700993	444.529082	1193.250213	-73.763867	244.638552	1362.034167	-162.684175	236.991545	1366.716706	-252.959437	319.854671	1113.260695	-23.997562	303.107966	1187.750153	-450.098694	375.054709	985.162535	-22.332857	422.967633	911.866622	-40.152457	427.350236	825.754008	-56.892908	455.347314	924.723770	-51.423629	453.581643	732.087972	-74.178888	451.975274	704.524821	-198.743125	337.974383	608.130763	-59.439561	293.875984	533.413437	-77.710802	219.737078	488.175008	-77.717845	314.841286	517.875503	-107.569442	117.650557	401.178044	-89.592409	73.783340	445.266779	-140.428665	197.852945	185.702929	-139.375362	135.769652	228.736724	-71.456453	418.754028	1087.663081	-459.810387	494.573071	1050.118246	-450.918382	517.812299	1074.353245	-438.096125	544.086036	974.905979	-446.905990	643.493881	873.979076	-420.415583	652.625890	865.699013	-288.673227	384.831112	524.394305	-404.308907	312.841379	518.592794	-372.002191	460.537003	370.268184	-435.426381	572.129941	772.775207	-438.055886	545.074330	691.775645	-425.814734	479.908008	632.398561	-422.517599	572.363015	676.970933	-403.409478	550.463399	337.394478	-366.312658	-169.812923	972.932032	-174.809143	1.338633	83.000710	-460.879076	-15.206935	81.710190	-62.447544	
1754	8.7700	814.550745	1335.141035	-84.908433	800.722328	1367.232022	-425.938444	796.756756	1448.643301	-254.242442	749.965484	1275.612500	-265.330047	619.797609	1150.393052	35.662920	781.306625	970.996613	-60.658014	591.296469	1164.378362	-561.687460	783.613387	955.493056	-441.937749	192.807420	1297.431133	-223.583182	386.107148	1312.983834	-441.064680	419.330606	1258.664542	-34.251911	403.921602	1226.252080	-409.612437	444.386455	1194.830838	-73.365549	251.104323	1361.258591	-168.200150	237.454665	1367.682595	-254.588046	321.587978	1115.099354	-24.086960	301.097007	1186.481302	-449.666343	379.893735	987.338548	-22.254737	428.920435	914.589493	-40.329760	434.736084	828.867261	-56.320721	460.886982	928.043861	-51.956077	460.099547	735.259940	-76.497087	459.230314	707.693356	-199.243566	344.179355	612.398790	-59.150418	298.223351	538.580174	-77.832188	223.352186	494.896663	-77.492762	318.732964	522.910052	-107.969690	119.109543	410.711825	-89.218991	76.553139	456.024486	-139.997956	192.965577	192.506705	-140.350688	132.681103	237.685570	-71.585814	414.913953	1084.423162	-459.712092	490.358852	1045.785386	-451.805541	514.324907	1070.319448	-440.203686	538.518880	969.665347	-447.518625	636.733783	866.395894	-420.771777	646.051157	858.375275	-289.611210	382.761487	512.456200	-404.117696	310.720805	504.785941	-371.865915	462.471250	360.639563	-435.512857	566.681808	763.042748	-438.482037	540.422045	682.296446	-426.282458	476.289428	621.596097	-422.470568	568.013660	667.813471	-403.339079	553.261934	330.875431	-366.930032	-169.731872	972.893580	-174.802348	1.319266	83.004644	-460.890930	-15.206389	81.689621	-62.453976	
